# MagicaVoxel @ ephtracy

# material
mtllib Ruazinha.mtl

# normals
vn -1 0 0
vn 1 0 0
vn 0 0 1
vn 0 0 -1
vn 0 -1 0
vn 0 1 0

# texcoords
vt 0.962891 0.5

# verts
v -5 4 -4
v -5 5 -4
v -5 5 -5
v -5 4 -5
v -5 2 -0
v -5 3 -0
v -5 3 -1
v -5 2 -1
v -5 0 -4
v -5 1 -4
v -5 1 -5
v -5 0 -5
v -5 0 -3
v -5 1 -3
v -5 0 1
v -5 1 1
v -5 1 -0
v -5 0 -0
v -5 0 -2
v -5 1 -2
v -5 0 -1
v -5 1 -1
v -5 4 5
v -5 5 5
v -5 5 4
v -5 4 4
v -5 2 4
v -5 3 4
v -5 3 3
v -5 2 3
v -5 2 -2
v -5 2 -3
v -5 2 1
v -5 1 2
v -5 2 2
v -5 1 3
v -5 0 5
v -5 1 5
v -5 1 4
v -5 0 4
v -5 3 1
v -5 2 5
v -5 2 -4
v -5 3 -4
v -5 3 -5
v -5 2 -5
v -5 3 -2
v -5 3 -3
v -5 0 3
v -5 0 2
v -5 3 2
v -5 3 5
v 5 4 -4
v 5 4 -5
v 5 5 -5
v 5 5 -4
v 5 2 -0
v 5 2 -1
v 5 3 -1
v 5 3 -0
v 5 0 -4
v 5 0 -5
v 5 1 -5
v 5 1 -4
v 5 0 -3
v 5 1 -3
v 5 0 -2
v 5 1 -2
v 5 0 1
v 5 0 -0
v 5 1 -0
v 5 1 1
v 5 0 -1
v 5 1 -1
v 5 2 -2
v 5 3 -2
v 5 2 3
v 5 2 2
v 5 3 2
v 5 3 3
v 5 4 5
v 5 4 4
v 5 5 4
v 5 5 5
v 5 2 4
v 5 3 4
v 5 2 -3
v 5 2 1
v 5 1 2
v 5 1 3
v 5 1 5
v 5 1 4
v 5 2 5
v 5 3 1
v 5 0 5
v 5 0 4
v 5 2 -4
v 5 2 -5
v 5 3 -5
v 5 3 -4
v 5 3 -3
v 5 0 2
v 5 0 3
v 5 3 5
v 4 4 -4
v 4 5 -4
v 3 4 -4
v 3 5 -4
v 2 4 -4
v 2 5 -4
v 1 4 -4
v 1 5 -4
v 0 4 -4
v 0 5 -4
v -1 4 -4
v -1 5 -4
v -2 4 -4
v -2 5 -4
v -3 4 -4
v -3 5 -4
v -4 4 -4
v -4 5 -4
v 4 4 5
v 4 5 5
v 3 4 5
v 3 5 5
v 2 4 5
v 2 5 5
v 1 4 5
v 1 5 5
v 0 4 5
v 0 5 5
v -1 4 5
v -1 5 5
v -2 4 5
v -2 5 5
v -3 4 5
v -3 5 5
v -4 4 5
v -4 5 5
v 4 1 5
v 4 2 5
v 3 1 5
v 3 2 5
v 2 1 5
v 2 2 5
v -4 0 5
v -4 1 5
v -3 0 5
v -3 1 5
v -2 0 5
v -2 1 5
v -1 0 5
v -1 1 5
v 0 0 5
v 0 1 5
v 1 0 5
v 1 1 5
v 2 0 5
v 3 0 5
v 1 2 5
v 0 2 5
v -1 2 5
v -2 2 5
v 4 0 5
v -3 2 5
v -4 2 5
v 4 3 -4
v 3 3 -4
v 2 3 -4
v 1 3 -4
v 0 3 -4
v -1 3 -4
v -2 3 -4
v -3 3 -4
v -4 3 -4
v -4 3 5
v -3 3 5
v -2 3 5
v -1 3 5
v 0 3 5
v 1 3 5
v 2 3 5
v 3 3 5
v 4 3 5
v 4 4 -5
v 4 5 -5
v 3 4 -5
v 3 5 -5
v 2 4 -5
v 2 5 -5
v 1 4 -5
v 1 5 -5
v 0 4 -5
v 0 5 -5
v -1 4 -5
v -1 5 -5
v -2 4 -5
v -2 5 -5
v -3 4 -5
v -3 5 -5
v -4 4 -5
v -4 5 -5
v 4 0 -5
v 4 1 -5
v 3 0 -5
v 3 1 -5
v 2 0 -5
v 2 1 -5
v 1 0 -5
v 1 1 -5
v 0 0 -5
v 0 1 -5
v -1 0 -5
v -1 1 -5
v -2 0 -5
v -2 1 -5
v -3 0 -5
v -3 1 -5
v -4 0 -5
v -4 1 -5
v 4 4 4
v 4 5 4
v 3 4 4
v 3 5 4
v 2 4 4
v 2 5 4
v 1 4 4
v 1 5 4
v 0 4 4
v 0 5 4
v -1 4 4
v -1 5 4
v -2 4 4
v -2 5 4
v -3 4 4
v -3 5 4
v -4 4 4
v -4 5 4
v 4 2 -5
v 4 3 -5
v 3 2 -5
v 3 3 -5
v 2 2 -5
v 2 3 -5
v 1 2 -5
v 1 3 -5
v 0 2 -5
v 0 3 -5
v -1 2 -5
v -1 3 -5
v -2 2 -5
v -2 3 -5
v -3 2 -5
v -3 3 -5
v -4 2 -5
v -4 3 -5
v 4 3 4
v 3 3 4
v 2 3 4
v 1 3 4
v 0 3 4
v -1 3 4
v -2 3 4
v -3 3 4
v -4 3 4
v 4 0 -4
v 3 0 -4
v 2 0 -4
v 1 0 -4
v 0 0 -4
v -1 0 -4
v -2 0 -4
v -3 0 -4
v -4 0 -4
v 4 0 -3
v 3 0 -3
v 2 0 -3
v 1 0 -3
v 0 0 -3
v -1 0 -3
v -2 0 -3
v -3 0 -3
v -4 0 -3
v 4 0 -2
v 3 0 -2
v -4 0 -0
v -4 0 1
v -3 0 -0
v -3 0 1
v -2 0 -0
v -2 0 1
v -1 0 -0
v -1 0 1
v 0 0 -0
v 0 0 1
v 1 0 -0
v 1 0 1
v 2 0 -0
v 2 0 1
v 3 0 -0
v 3 0 1
v 4 0 -0
v 4 0 1
v 2 0 -2
v 1 0 -2
v 0 0 -2
v -1 0 -2
v -2 0 -2
v -3 0 -2
v -4 0 -2
v 4 0 -1
v 3 0 -1
v 2 0 -1
v 1 0 -1
v 0 0 -1
v -1 0 -1
v -2 0 -1
v -3 0 -1
v -4 0 -1
v -4 0 4
v -3 0 4
v -2 0 4
v -1 0 4
v 0 0 4
v 1 0 4
v 2 0 4
v 3 0 4
v 4 0 4
v 4 0 2
v 3 0 2
v 2 0 2
v 1 0 2
v 0 0 2
v 4 0 3
v 3 0 3
v 2 0 3
v 1 0 3
v 0 0 3
v -1 0 3
v -1 0 2
v -2 0 3
v -2 0 2
v -3 0 3
v -3 0 2
v -4 0 3
v -4 0 2
v 4 3 -0
v 4 3 -1
v 3 3 -0
v 3 3 -1
v 2 3 -0
v 2 3 -1
v 1 3 -0
v 1 3 -1
v 0 3 -0
v 0 3 -1
v -1 3 -0
v -1 3 -1
v -2 3 -0
v -2 3 -1
v -3 3 -0
v -3 3 -1
v -4 3 -0
v -4 3 -1
v 4 3 -2
v 3 3 -2
v 4 3 3
v 4 3 2
v 3 3 3
v 3 3 2
v 2 3 3
v 2 3 2
v 1 3 3
v 1 3 2
v 0 3 3
v 0 3 2
v -1 3 3
v -1 3 2
v -2 3 3
v -2 3 2
v -3 3 3
v -3 3 2
v -4 3 3
v 4 3 1
v 3 3 1
v 2 3 1
v 1 3 1
v 0 3 1
v -1 3 1
v -2 3 1
v -3 3 1
v -4 3 1
v -4 3 -2
v -4 3 -3
v -3 3 -2
v -3 3 -3
v -2 3 -2
v -2 3 -3
v -1 3 -2
v -1 3 -3
v 0 3 -2
v 0 3 -3
v 1 3 -2
v 1 3 -3
v 2 3 -2
v 2 3 -3
v 3 3 -3
v 4 3 -3
v -4 3 2

# faces

usemtl palette

f 1/1/1 2/1/1 3/1/1 4/1/1

f 5/1/1 6/1/1 7/1/1 8/1/1

f 9/1/1 10/1/1 11/1/1 12/1/1

f 13/1/1 14/1/1 10/1/1 9/1/1

f 15/1/1 16/1/1 17/1/1 18/1/1

f 19/1/1 20/1/1 14/1/1 13/1/1

f 21/1/1 22/1/1 20/1/1 19/1/1

f 18/1/1 17/1/1 22/1/1 21/1/1

f 23/1/1 24/1/1 25/1/1 26/1/1

f 27/1/1 28/1/1 29/1/1 30/1/1

f 20/1/1 31/1/1 32/1/1 14/1/1

f 22/1/1 8/1/1 31/1/1 20/1/1

f 17/1/1 5/1/1 8/1/1 22/1/1

f 16/1/1 33/1/1 5/1/1 17/1/1

f 34/1/1 35/1/1 33/1/1 16/1/1

f 36/1/1 30/1/1 35/1/1 34/1/1

f 37/1/1 38/1/1 39/1/1 40/1/1

f 39/1/1 27/1/1 30/1/1 36/1/1

f 33/1/1 41/1/1 6/1/1 5/1/1

f 38/1/1 42/1/1 27/1/1 39/1/1

f 43/1/1 44/1/1 45/1/1 46/1/1

f 14/1/1 32/1/1 43/1/1 10/1/1

f 10/1/1 43/1/1 46/1/1 11/1/1

f 31/1/1 47/1/1 48/1/1 32/1/1

f 32/1/1 48/1/1 44/1/1 43/1/1

f 8/1/1 7/1/1 47/1/1 31/1/1

f 49/1/1 36/1/1 34/1/1 50/1/1

f 50/1/1 34/1/1 16/1/1 15/1/1

f 35/1/1 51/1/1 41/1/1 33/1/1

f 44/1/1 1/1/1 4/1/1 45/1/1

f 30/1/1 29/1/1 51/1/1 35/1/1

f 40/1/1 39/1/1 36/1/1 49/1/1

f 42/1/1 52/1/1 28/1/1 27/1/1

f 52/1/1 23/1/1 26/1/1 28/1/1

f 53/1/2 54/1/2 55/1/2 56/1/2

f 57/1/2 58/1/2 59/1/2 60/1/2

f 61/1/2 62/1/2 63/1/2 64/1/2

f 65/1/2 61/1/2 64/1/2 66/1/2

f 67/1/2 65/1/2 66/1/2 68/1/2

f 69/1/2 70/1/2 71/1/2 72/1/2

f 73/1/2 67/1/2 68/1/2 74/1/2

f 70/1/2 73/1/2 74/1/2 71/1/2

f 58/1/2 75/1/2 76/1/2 59/1/2

f 77/1/2 78/1/2 79/1/2 80/1/2

f 81/1/2 82/1/2 83/1/2 84/1/2

f 85/1/2 77/1/2 80/1/2 86/1/2

f 68/1/2 66/1/2 87/1/2 75/1/2

f 74/1/2 68/1/2 75/1/2 58/1/2

f 71/1/2 74/1/2 58/1/2 57/1/2

f 72/1/2 71/1/2 57/1/2 88/1/2

f 89/1/2 72/1/2 88/1/2 78/1/2

f 90/1/2 89/1/2 78/1/2 77/1/2

f 91/1/2 92/1/2 85/1/2 93/1/2

f 92/1/2 90/1/2 77/1/2 85/1/2

f 88/1/2 57/1/2 60/1/2 94/1/2

f 95/1/2 96/1/2 92/1/2 91/1/2

f 97/1/2 98/1/2 99/1/2 100/1/2

f 66/1/2 64/1/2 97/1/2 87/1/2

f 64/1/2 63/1/2 98/1/2 97/1/2

f 75/1/2 87/1/2 101/1/2 76/1/2

f 87/1/2 97/1/2 100/1/2 101/1/2

f 102/1/2 69/1/2 72/1/2 89/1/2

f 103/1/2 102/1/2 89/1/2 90/1/2

f 96/1/2 103/1/2 90/1/2 92/1/2

f 78/1/2 88/1/2 94/1/2 79/1/2

f 100/1/2 99/1/2 54/1/2 53/1/2

f 93/1/2 85/1/2 86/1/2 104/1/2

f 104/1/2 86/1/2 82/1/2 81/1/2

f 105/1/3 53/1/3 56/1/3 106/1/3

f 107/1/3 105/1/3 106/1/3 108/1/3

f 109/1/3 107/1/3 108/1/3 110/1/3

f 111/1/3 109/1/3 110/1/3 112/1/3

f 113/1/3 111/1/3 112/1/3 114/1/3

f 115/1/3 113/1/3 114/1/3 116/1/3

f 117/1/3 115/1/3 116/1/3 118/1/3

f 119/1/3 117/1/3 118/1/3 120/1/3

f 121/1/3 119/1/3 120/1/3 122/1/3

f 1/1/3 121/1/3 122/1/3 2/1/3

f 123/1/3 81/1/3 84/1/3 124/1/3

f 125/1/3 123/1/3 124/1/3 126/1/3

f 127/1/3 125/1/3 126/1/3 128/1/3

f 129/1/3 127/1/3 128/1/3 130/1/3

f 131/1/3 129/1/3 130/1/3 132/1/3

f 133/1/3 131/1/3 132/1/3 134/1/3

f 135/1/3 133/1/3 134/1/3 136/1/3

f 137/1/3 135/1/3 136/1/3 138/1/3

f 139/1/3 137/1/3 138/1/3 140/1/3

f 23/1/3 139/1/3 140/1/3 24/1/3

f 141/1/3 91/1/3 93/1/3 142/1/3

f 143/1/3 141/1/3 142/1/3 144/1/3

f 145/1/3 143/1/3 144/1/3 146/1/3

f 37/1/3 147/1/3 148/1/3 38/1/3

f 147/1/3 149/1/3 150/1/3 148/1/3

f 149/1/3 151/1/3 152/1/3 150/1/3

f 151/1/3 153/1/3 154/1/3 152/1/3

f 153/1/3 155/1/3 156/1/3 154/1/3

f 155/1/3 157/1/3 158/1/3 156/1/3

f 157/1/3 159/1/3 145/1/3 158/1/3

f 159/1/3 160/1/3 143/1/3 145/1/3

f 158/1/3 145/1/3 146/1/3 161/1/3

f 156/1/3 158/1/3 161/1/3 162/1/3

f 154/1/3 156/1/3 162/1/3 163/1/3

f 152/1/3 154/1/3 163/1/3 164/1/3

f 160/1/3 165/1/3 141/1/3 143/1/3

f 165/1/3 95/1/3 91/1/3 141/1/3

f 150/1/3 152/1/3 164/1/3 166/1/3

f 148/1/3 150/1/3 166/1/3 167/1/3

f 38/1/3 148/1/3 167/1/3 42/1/3

f 168/1/3 100/1/3 53/1/3 105/1/3

f 169/1/3 168/1/3 105/1/3 107/1/3

f 170/1/3 169/1/3 107/1/3 109/1/3

f 171/1/3 170/1/3 109/1/3 111/1/3

f 172/1/3 171/1/3 111/1/3 113/1/3

f 173/1/3 172/1/3 113/1/3 115/1/3

f 174/1/3 173/1/3 115/1/3 117/1/3

f 175/1/3 174/1/3 117/1/3 119/1/3

f 176/1/3 175/1/3 119/1/3 121/1/3

f 44/1/3 176/1/3 121/1/3 1/1/3

f 42/1/3 167/1/3 177/1/3 52/1/3

f 167/1/3 166/1/3 178/1/3 177/1/3

f 166/1/3 164/1/3 179/1/3 178/1/3

f 164/1/3 163/1/3 180/1/3 179/1/3

f 163/1/3 162/1/3 181/1/3 180/1/3

f 162/1/3 161/1/3 182/1/3 181/1/3

f 161/1/3 146/1/3 183/1/3 182/1/3

f 146/1/3 144/1/3 184/1/3 183/1/3

f 144/1/3 142/1/3 185/1/3 184/1/3

f 142/1/3 93/1/3 104/1/3 185/1/3

f 185/1/3 104/1/3 81/1/3 123/1/3

f 184/1/3 185/1/3 123/1/3 125/1/3

f 183/1/3 184/1/3 125/1/3 127/1/3

f 182/1/3 183/1/3 127/1/3 129/1/3

f 181/1/3 182/1/3 129/1/3 131/1/3

f 180/1/3 181/1/3 131/1/3 133/1/3

f 179/1/3 180/1/3 133/1/3 135/1/3

f 178/1/3 179/1/3 135/1/3 137/1/3

f 177/1/3 178/1/3 137/1/3 139/1/3

f 52/1/3 177/1/3 139/1/3 23/1/3

f 186/1/4 187/1/4 55/1/4 54/1/4

f 188/1/4 189/1/4 187/1/4 186/1/4

f 190/1/4 191/1/4 189/1/4 188/1/4

f 192/1/4 193/1/4 191/1/4 190/1/4

f 194/1/4 195/1/4 193/1/4 192/1/4

f 196/1/4 197/1/4 195/1/4 194/1/4

f 198/1/4 199/1/4 197/1/4 196/1/4

f 200/1/4 201/1/4 199/1/4 198/1/4

f 202/1/4 203/1/4 201/1/4 200/1/4

f 4/1/4 3/1/4 203/1/4 202/1/4

f 204/1/4 205/1/4 63/1/4 62/1/4

f 206/1/4 207/1/4 205/1/4 204/1/4

f 208/1/4 209/1/4 207/1/4 206/1/4

f 210/1/4 211/1/4 209/1/4 208/1/4

f 212/1/4 213/1/4 211/1/4 210/1/4

f 214/1/4 215/1/4 213/1/4 212/1/4

f 216/1/4 217/1/4 215/1/4 214/1/4

f 218/1/4 219/1/4 217/1/4 216/1/4

f 220/1/4 221/1/4 219/1/4 218/1/4

f 12/1/4 11/1/4 221/1/4 220/1/4

f 222/1/4 223/1/4 83/1/4 82/1/4

f 224/1/4 225/1/4 223/1/4 222/1/4

f 226/1/4 227/1/4 225/1/4 224/1/4

f 228/1/4 229/1/4 227/1/4 226/1/4

f 230/1/4 231/1/4 229/1/4 228/1/4

f 232/1/4 233/1/4 231/1/4 230/1/4

f 234/1/4 235/1/4 233/1/4 232/1/4

f 236/1/4 237/1/4 235/1/4 234/1/4

f 238/1/4 239/1/4 237/1/4 236/1/4

f 26/1/4 25/1/4 239/1/4 238/1/4

f 240/1/4 241/1/4 99/1/4 98/1/4

f 242/1/4 243/1/4 241/1/4 240/1/4

f 244/1/4 245/1/4 243/1/4 242/1/4

f 246/1/4 247/1/4 245/1/4 244/1/4

f 248/1/4 249/1/4 247/1/4 246/1/4

f 250/1/4 251/1/4 249/1/4 248/1/4

f 252/1/4 253/1/4 251/1/4 250/1/4

f 254/1/4 255/1/4 253/1/4 252/1/4

f 256/1/4 257/1/4 255/1/4 254/1/4

f 46/1/4 45/1/4 257/1/4 256/1/4

f 11/1/4 46/1/4 256/1/4 221/1/4

f 221/1/4 256/1/4 254/1/4 219/1/4

f 219/1/4 254/1/4 252/1/4 217/1/4

f 217/1/4 252/1/4 250/1/4 215/1/4

f 215/1/4 250/1/4 248/1/4 213/1/4

f 213/1/4 248/1/4 246/1/4 211/1/4

f 211/1/4 246/1/4 244/1/4 209/1/4

f 209/1/4 244/1/4 242/1/4 207/1/4

f 207/1/4 242/1/4 240/1/4 205/1/4

f 205/1/4 240/1/4 98/1/4 63/1/4

f 241/1/4 186/1/4 54/1/4 99/1/4

f 243/1/4 188/1/4 186/1/4 241/1/4

f 245/1/4 190/1/4 188/1/4 243/1/4

f 247/1/4 192/1/4 190/1/4 245/1/4

f 249/1/4 194/1/4 192/1/4 247/1/4

f 251/1/4 196/1/4 194/1/4 249/1/4

f 253/1/4 198/1/4 196/1/4 251/1/4

f 255/1/4 200/1/4 198/1/4 253/1/4

f 257/1/4 202/1/4 200/1/4 255/1/4

f 45/1/4 4/1/4 202/1/4 257/1/4

f 258/1/4 222/1/4 82/1/4 86/1/4

f 259/1/4 224/1/4 222/1/4 258/1/4

f 260/1/4 226/1/4 224/1/4 259/1/4

f 261/1/4 228/1/4 226/1/4 260/1/4

f 262/1/4 230/1/4 228/1/4 261/1/4

f 263/1/4 232/1/4 230/1/4 262/1/4

f 264/1/4 234/1/4 232/1/4 263/1/4

f 265/1/4 236/1/4 234/1/4 264/1/4

f 266/1/4 238/1/4 236/1/4 265/1/4

f 28/1/4 26/1/4 238/1/4 266/1/4

f 267/1/5 204/1/5 62/1/5 61/1/5

f 268/1/5 206/1/5 204/1/5 267/1/5

f 269/1/5 208/1/5 206/1/5 268/1/5

f 270/1/5 210/1/5 208/1/5 269/1/5

f 271/1/5 212/1/5 210/1/5 270/1/5

f 272/1/5 214/1/5 212/1/5 271/1/5

f 273/1/5 216/1/5 214/1/5 272/1/5

f 274/1/5 218/1/5 216/1/5 273/1/5

f 275/1/5 220/1/5 218/1/5 274/1/5

f 9/1/5 12/1/5 220/1/5 275/1/5

f 276/1/5 267/1/5 61/1/5 65/1/5

f 277/1/5 268/1/5 267/1/5 276/1/5

f 278/1/5 269/1/5 268/1/5 277/1/5

f 279/1/5 270/1/5 269/1/5 278/1/5

f 280/1/5 271/1/5 270/1/5 279/1/5

f 281/1/5 272/1/5 271/1/5 280/1/5

f 282/1/5 273/1/5 272/1/5 281/1/5

f 283/1/5 274/1/5 273/1/5 282/1/5

f 284/1/5 275/1/5 274/1/5 283/1/5

f 13/1/5 9/1/5 275/1/5 284/1/5

f 285/1/5 276/1/5 65/1/5 67/1/5

f 286/1/5 277/1/5 276/1/5 285/1/5

f 15/1/5 18/1/5 287/1/5 288/1/5

f 288/1/5 287/1/5 289/1/5 290/1/5

f 290/1/5 289/1/5 291/1/5 292/1/5

f 292/1/5 291/1/5 293/1/5 294/1/5

f 294/1/5 293/1/5 295/1/5 296/1/5

f 296/1/5 295/1/5 297/1/5 298/1/5

f 298/1/5 297/1/5 299/1/5 300/1/5

f 300/1/5 299/1/5 301/1/5 302/1/5

f 302/1/5 301/1/5 303/1/5 304/1/5

f 304/1/5 303/1/5 70/1/5 69/1/5

f 305/1/5 278/1/5 277/1/5 286/1/5

f 306/1/5 279/1/5 278/1/5 305/1/5

f 307/1/5 280/1/5 279/1/5 306/1/5

f 308/1/5 281/1/5 280/1/5 307/1/5

f 309/1/5 282/1/5 281/1/5 308/1/5

f 310/1/5 283/1/5 282/1/5 309/1/5

f 311/1/5 284/1/5 283/1/5 310/1/5

f 19/1/5 13/1/5 284/1/5 311/1/5

f 312/1/5 285/1/5 67/1/5 73/1/5

f 313/1/5 286/1/5 285/1/5 312/1/5

f 314/1/5 305/1/5 286/1/5 313/1/5

f 315/1/5 306/1/5 305/1/5 314/1/5

f 316/1/5 307/1/5 306/1/5 315/1/5

f 317/1/5 308/1/5 307/1/5 316/1/5

f 318/1/5 309/1/5 308/1/5 317/1/5

f 319/1/5 310/1/5 309/1/5 318/1/5

f 320/1/5 311/1/5 310/1/5 319/1/5

f 21/1/5 19/1/5 311/1/5 320/1/5

f 303/1/5 312/1/5 73/1/5 70/1/5

f 301/1/5 313/1/5 312/1/5 303/1/5

f 299/1/5 314/1/5 313/1/5 301/1/5

f 297/1/5 315/1/5 314/1/5 299/1/5

f 295/1/5 316/1/5 315/1/5 297/1/5

f 293/1/5 317/1/5 316/1/5 295/1/5

f 291/1/5 318/1/5 317/1/5 293/1/5

f 289/1/5 319/1/5 318/1/5 291/1/5

f 287/1/5 320/1/5 319/1/5 289/1/5

f 18/1/5 21/1/5 320/1/5 287/1/5

f 37/1/5 40/1/5 321/1/5 147/1/5

f 147/1/5 321/1/5 322/1/5 149/1/5

f 149/1/5 322/1/5 323/1/5 151/1/5

f 151/1/5 323/1/5 324/1/5 153/1/5

f 153/1/5 324/1/5 325/1/5 155/1/5

f 155/1/5 325/1/5 326/1/5 157/1/5

f 157/1/5 326/1/5 327/1/5 159/1/5

f 159/1/5 327/1/5 328/1/5 160/1/5

f 160/1/5 328/1/5 329/1/5 165/1/5

f 165/1/5 329/1/5 96/1/5 95/1/5

f 330/1/5 304/1/5 69/1/5 102/1/5

f 331/1/5 302/1/5 304/1/5 330/1/5

f 332/1/5 300/1/5 302/1/5 331/1/5

f 333/1/5 298/1/5 300/1/5 332/1/5

f 334/1/5 296/1/5 298/1/5 333/1/5

f 335/1/5 330/1/5 102/1/5 103/1/5

f 336/1/5 331/1/5 330/1/5 335/1/5

f 337/1/5 332/1/5 331/1/5 336/1/5

f 338/1/5 333/1/5 332/1/5 337/1/5

f 339/1/5 334/1/5 333/1/5 338/1/5

f 340/1/5 341/1/5 334/1/5 339/1/5

f 342/1/5 343/1/5 341/1/5 340/1/5

f 344/1/5 345/1/5 343/1/5 342/1/5

f 346/1/5 347/1/5 345/1/5 344/1/5

f 49/1/5 50/1/5 347/1/5 346/1/5

f 341/1/5 294/1/5 296/1/5 334/1/5

f 343/1/5 292/1/5 294/1/5 341/1/5

f 345/1/5 290/1/5 292/1/5 343/1/5

f 347/1/5 288/1/5 290/1/5 345/1/5

f 50/1/5 15/1/5 288/1/5 347/1/5

f 329/1/5 335/1/5 103/1/5 96/1/5

f 328/1/5 336/1/5 335/1/5 329/1/5

f 327/1/5 337/1/5 336/1/5 328/1/5

f 326/1/5 338/1/5 337/1/5 327/1/5

f 325/1/5 339/1/5 338/1/5 326/1/5

f 324/1/5 340/1/5 339/1/5 325/1/5

f 323/1/5 342/1/5 340/1/5 324/1/5

f 40/1/5 49/1/5 346/1/5 321/1/5

f 321/1/5 346/1/5 344/1/5 322/1/5

f 322/1/5 344/1/5 342/1/5 323/1/5

f 106/1/6 56/1/6 55/1/6 187/1/6

f 108/1/6 106/1/6 187/1/6 189/1/6

f 110/1/6 108/1/6 189/1/6 191/1/6

f 112/1/6 110/1/6 191/1/6 193/1/6

f 114/1/6 112/1/6 193/1/6 195/1/6

f 116/1/6 114/1/6 195/1/6 197/1/6

f 118/1/6 116/1/6 197/1/6 199/1/6

f 120/1/6 118/1/6 199/1/6 201/1/6

f 122/1/6 120/1/6 201/1/6 203/1/6

f 2/1/6 122/1/6 203/1/6 3/1/6

f 348/1/6 60/1/6 59/1/6 349/1/6

f 350/1/6 348/1/6 349/1/6 351/1/6

f 352/1/6 350/1/6 351/1/6 353/1/6

f 354/1/6 352/1/6 353/1/6 355/1/6

f 356/1/6 354/1/6 355/1/6 357/1/6

f 358/1/6 356/1/6 357/1/6 359/1/6

f 360/1/6 358/1/6 359/1/6 361/1/6

f 362/1/6 360/1/6 361/1/6 363/1/6

f 364/1/6 362/1/6 363/1/6 365/1/6

f 6/1/6 364/1/6 365/1/6 7/1/6

f 349/1/6 59/1/6 76/1/6 366/1/6

f 351/1/6 349/1/6 366/1/6 367/1/6

f 368/1/6 80/1/6 79/1/6 369/1/6

f 370/1/6 368/1/6 369/1/6 371/1/6

f 372/1/6 370/1/6 371/1/6 373/1/6

f 374/1/6 372/1/6 373/1/6 375/1/6

f 376/1/6 374/1/6 375/1/6 377/1/6

f 378/1/6 376/1/6 377/1/6 379/1/6

f 380/1/6 378/1/6 379/1/6 381/1/6

f 382/1/6 380/1/6 381/1/6 383/1/6

f 124/1/6 84/1/6 83/1/6 223/1/6

f 126/1/6 124/1/6 223/1/6 225/1/6

f 128/1/6 126/1/6 225/1/6 227/1/6

f 130/1/6 128/1/6 227/1/6 229/1/6

f 132/1/6 130/1/6 229/1/6 231/1/6

f 134/1/6 132/1/6 231/1/6 233/1/6

f 136/1/6 134/1/6 233/1/6 235/1/6

f 138/1/6 136/1/6 235/1/6 237/1/6

f 140/1/6 138/1/6 237/1/6 239/1/6

f 24/1/6 140/1/6 239/1/6 25/1/6

f 258/1/6 86/1/6 80/1/6 368/1/6

f 259/1/6 258/1/6 368/1/6 370/1/6

f 260/1/6 259/1/6 370/1/6 372/1/6

f 261/1/6 260/1/6 372/1/6 374/1/6

f 262/1/6 261/1/6 374/1/6 376/1/6

f 263/1/6 262/1/6 376/1/6 378/1/6

f 264/1/6 263/1/6 378/1/6 380/1/6

f 265/1/6 264/1/6 380/1/6 382/1/6

f 266/1/6 265/1/6 382/1/6 384/1/6

f 28/1/6 266/1/6 384/1/6 29/1/6

f 385/1/6 94/1/6 60/1/6 348/1/6

f 386/1/6 385/1/6 348/1/6 350/1/6

f 387/1/6 386/1/6 350/1/6 352/1/6

f 388/1/6 387/1/6 352/1/6 354/1/6

f 389/1/6 388/1/6 354/1/6 356/1/6

f 390/1/6 389/1/6 356/1/6 358/1/6

f 391/1/6 390/1/6 358/1/6 360/1/6

f 392/1/6 391/1/6 360/1/6 362/1/6

f 393/1/6 392/1/6 362/1/6 364/1/6

f 41/1/6 393/1/6 364/1/6 6/1/6

f 47/1/6 394/1/6 395/1/6 48/1/6

f 394/1/6 396/1/6 397/1/6 395/1/6

f 396/1/6 398/1/6 399/1/6 397/1/6

f 398/1/6 400/1/6 401/1/6 399/1/6

f 400/1/6 402/1/6 403/1/6 401/1/6

f 402/1/6 404/1/6 405/1/6 403/1/6

f 404/1/6 406/1/6 407/1/6 405/1/6

f 406/1/6 367/1/6 408/1/6 407/1/6

f 367/1/6 366/1/6 409/1/6 408/1/6

f 366/1/6 76/1/6 101/1/6 409/1/6

f 48/1/6 395/1/6 176/1/6 44/1/6

f 395/1/6 397/1/6 175/1/6 176/1/6

f 397/1/6 399/1/6 174/1/6 175/1/6

f 399/1/6 401/1/6 173/1/6 174/1/6

f 401/1/6 403/1/6 172/1/6 173/1/6

f 403/1/6 405/1/6 171/1/6 172/1/6

f 405/1/6 407/1/6 170/1/6 171/1/6

f 407/1/6 408/1/6 169/1/6 170/1/6

f 408/1/6 409/1/6 168/1/6 169/1/6

f 409/1/6 101/1/6 100/1/6 168/1/6

f 7/1/6 365/1/6 394/1/6 47/1/6

f 365/1/6 363/1/6 396/1/6 394/1/6

f 363/1/6 361/1/6 398/1/6 396/1/6

f 369/1/6 79/1/6 94/1/6 385/1/6

f 371/1/6 369/1/6 385/1/6 386/1/6

f 373/1/6 371/1/6 386/1/6 387/1/6

f 375/1/6 373/1/6 387/1/6 388/1/6

f 377/1/6 375/1/6 388/1/6 389/1/6

f 379/1/6 377/1/6 389/1/6 390/1/6

f 381/1/6 379/1/6 390/1/6 391/1/6

f 383/1/6 381/1/6 391/1/6 392/1/6

f 410/1/6 383/1/6 392/1/6 393/1/6

f 51/1/6 410/1/6 393/1/6 41/1/6

f 384/1/6 382/1/6 383/1/6 410/1/6

f 29/1/6 384/1/6 410/1/6 51/1/6

f 353/1/6 351/1/6 367/1/6 406/1/6

f 355/1/6 353/1/6 406/1/6 404/1/6

f 357/1/6 355/1/6 404/1/6 402/1/6

f 359/1/6 357/1/6 402/1/6 400/1/6

f 361/1/6 359/1/6 400/1/6 398/1/6

# numNormals 6
# numTexCoords 1
# numVerts 410
# numFaces 408
